<?xml version="1.0" encoding="UTF-8" standalone="no"?>
<svg
   enable-background="new 0 0 579.997 579.997"
   height="579.997"
   viewBox="0 0 579.997 579.997"
   width="579.997"
   version="1.1"
   id="svg6"
   sodipodi:docname="amenity=place_of_worship.svg"
   inkscape:version="1.2.1 (9c6d41e410, 2022-07-14)"
   xmlns:inkscape="http://www.inkscape.org/namespaces/inkscape"
   xmlns:sodipodi="http://sodipodi.sourceforge.net/DTD/sodipodi-0.dtd"
   xmlns="http://www.w3.org/2000/svg"
   xmlns:svg="http://www.w3.org/2000/svg">
  <defs
     id="defs10" />
  <sodipodi:namedview
     id="namedview8"
     pagecolor="#ffffff"
     bordercolor="#000000"
     borderopacity="0.25"
     inkscape:showpageshadow="2"
     inkscape:pageopacity="0.0"
     inkscape:pagecheckerboard="0"
     inkscape:deskcolor="#d1d1d1"
     showgrid="false"
     inkscape:zoom="1.5120768"
     inkscape:cx="269.4969"
     inkscape:cy="289.66783"
     inkscape:window-width="1920"
     inkscape:window-height="1057"
     inkscape:window-x="-8"
     inkscape:window-y="-8"
     inkscape:window-maximized="1"
     inkscape:current-layer="svg6" />
  <path
     d="m393.084 432.768l-91.882 1.096 77.155-45.311c10.479-7.719 16.779-19.861 16.992-32.852v-147.265c.142-11.965-4.886-23.436-13.735-31.453-8.921-8.018-20.815-11.824-32.71-10.461-10.052 1.047-18.948 5.604-25.539 12.368l-68.581 55.588-54.574-38.426c-13.097-9.221-31.187-6.078-40.407 7.017-9.221 13.096-6.079 31.187 7.017 40.407l72.499 51.047c5.021 3.535 10.862 5.288 16.692 5.288 6.486 0 12.957-2.17 18.264-6.472l37.247-30.19v71.029l-130.273 98.552c-14.107 10.834-19.789 29.383-14.178 46.27 5.628 16.85 21.328 28.285 39.1 28.496h186.913c23.151 0 41.913-14.23 41.913-37.383 0-23.15-18.762-37.345-41.913-37.345z"
     fill="param(fill)"
     fill-opacity="param(fill-opacity)"
     stroke="param(outline)"
     stroke-opacity="param(outline-opacity)"
     stroke-width="param(outline-width)"
     id="path2"
     style="fill:#ec9b1a;fill-opacity:1;stroke:#000000;stroke-opacity:1;stroke-width:12;stroke-dasharray:none;paint-order:fill markers stroke" />
  <path
     d="m289.998 166.043c30.444 0 55.153-24.709 55.153-55.17 0-30.463-24.709-55.154-55.153-55.154-30.462 0-55.153 24.691-55.153 55.154 0 30.461 24.691 55.17 55.153 55.17z"
     fill="param(fill)"
     fill-opacity="param(fill-opacity)"
     stroke="param(outline)"
     stroke-opacity="param(outline-opacity)"
     stroke-width="param(outline-width)"
     id="path4"
     style="fill:#ec9b1a;fill-opacity:1;stroke:#000000;stroke-opacity:1;stroke-width:12;stroke-dasharray:none;paint-order:fill markers stroke" />
</svg>
