<?xml version="1.0" encoding="UTF-8" standalone="no"?>
<svg
   enable-background="new -235.433 -235.433 579.997 579.997"
   height="579.997"
   viewBox="-235.433 -235.433 579.997 579.997"
   width="579.997"
   version="1.1"
   id="svg6"
   sodipodi:docname="camera.svg"
   inkscape:version="1.2.1 (9c6d41e410, 2022-07-14)"
   xmlns:inkscape="http://www.inkscape.org/namespaces/inkscape"
   xmlns:sodipodi="http://sodipodi.sourceforge.net/DTD/sodipodi-0.dtd"
   xmlns="http://www.w3.org/2000/svg"
   xmlns:svg="http://www.w3.org/2000/svg">
  <defs
     id="defs10" />
  <sodipodi:namedview
     id="namedview8"
     pagecolor="#ffffff"
     bordercolor="#000000"
     borderopacity="0.25"
     inkscape:showpageshadow="2"
     inkscape:pageopacity="0.0"
     inkscape:pagecheckerboard="0"
     inkscape:deskcolor="#d1d1d1"
     showgrid="false"
     inkscape:zoom="0.5"
     inkscape:cx="109"
     inkscape:cy="290"
     inkscape:window-width="1920"
     inkscape:window-height="1057"
     inkscape:window-x="-8"
     inkscape:window-y="-8"
     inkscape:window-maximized="1"
     inkscape:current-layer="svg6" />
  <path
     d="m125.788-42.707v-62.611h-154.476v62.611h-58.462v-22.383h-48.975v22.383h-37.724v257.159h460.021v-257.159zm-77.238 69.148c40.267 0 73.026 32.759 73.026 73.026s-32.76 73.026-73.026 73.026-73.026-32.76-73.026-73.026 32.76-73.026 73.026-73.026zm-45.478-39.096v-65.911h90.958v65.911z"
     fill="param(fill) #000"
     fill-opacity="255"
     stroke="param(outline) #FFF"
     stroke-opacity="255"
     stroke-width="param(outline-width) 0"
     id="path2"
     style="fill:#4f4f4f;fill-opacity:0.63636363;stroke:#210d0d;stroke-opacity:1;paint-order:fill markers stroke;stroke-width:7.6;stroke-dasharray:none" />
  <path
     d="m48.55 148.282c26.865 0 48.722-21.854 48.722-48.717s-21.856-48.716-48.722-48.716c-26.864 0-48.719 21.854-48.719 48.716s21.856 48.717 48.719 48.717z"
     fill="param(fill) #000"
     fill-opacity="255"
     stroke="param(outline) #FFF"
     stroke-opacity="255"
     stroke-width="param(outline-width) 0"
     id="path4" />
</svg>
