<?xml version="1.0" encoding="UTF-8" standalone="no"?>
<svg
   enable-background="new 0 0 580 580"
   height="580"
   viewBox="0 0 580 580"
   width="580"
   version="1.1"
   id="svg1214"
   sodipodi:docname="NorthArrow_01.svg"
   inkscape:version="1.2.1 (9c6d41e410, 2022-07-14)"
   xmlns:inkscape="http://www.inkscape.org/namespaces/inkscape"
   xmlns:sodipodi="http://sodipodi.sourceforge.net/DTD/sodipodi-0.dtd"
   xmlns="http://www.w3.org/2000/svg"
   xmlns:svg="http://www.w3.org/2000/svg">
  <defs
     id="defs1218">
    <linearGradient
       id="linearGradient3711"
       inkscape:swatch="solid">
      <stop
         style="stop-color:#d88311;stop-opacity:1;"
         offset="0"
         id="stop3709" />
    </linearGradient>
  </defs>
  <sodipodi:namedview
     id="namedview1216"
     pagecolor="#ffffff"
     bordercolor="#000000"
     borderopacity="0.25"
     inkscape:showpageshadow="2"
     inkscape:pageopacity="0.0"
     inkscape:pagecheckerboard="0"
     inkscape:deskcolor="#d1d1d1"
     showgrid="false"
     inkscape:zoom="1.512069"
     inkscape:cx="269.49829"
     inkscape:cy="290.33067"
     inkscape:window-width="1920"
     inkscape:window-height="1057"
     inkscape:window-x="-8"
     inkscape:window-y="-8"
     inkscape:window-maximized="1"
     inkscape:current-layer="svg1214" />
  <path
     d="m290 34.5c-141.109 0-255.5 114.391-255.5 255.5 0 141.108 114.391 255.5 255.5 255.5 141.108 0 255.5-114.392 255.5-255.5 0-141.109-114.392-255.5-255.5-255.5zm161.977 417.477c-21.046 21.046-45.547 37.565-72.821 49.102-28.224 11.938-58.22 17.991-89.155 17.991s-60.932-6.053-89.156-17.991c-27.274-11.536-51.774-28.056-72.82-49.102s-37.566-45.547-49.102-72.821c-11.939-28.224-17.992-58.22-17.992-89.156s6.053-60.932 17.991-89.156c11.536-27.274 28.056-51.774 49.102-72.82s45.546-37.566 72.82-49.102c23.17-9.801 47.538-15.626 72.636-17.401v228.479h33.039v-228.479c25.099 1.775 49.465 7.601 72.636 17.401 27.274 11.536 51.775 28.056 72.821 49.102 21.045 21.046 37.565 45.546 49.102 72.82 11.938 28.224 17.991 58.22 17.991 89.156s-6.054 60.932-17.991 89.155c-11.536 27.275-28.057 51.776-49.101 72.822z"
     fill="param(fill)"
     fill-opacity="param(fill-opacity)"
     stroke="param(outline)"
     stroke-opacity="param(outline-opacity)"
     stroke-width="param(outline-width)"
     id="path1212"
     style="fill-opacity:1;stroke:#edf40d;stroke-opacity:1;fill-rule:nonzero;fill:#d86611" />
</svg>
