<?xml version="1.0" encoding="UTF-8" standalone="no"?>
<svg
   enable-background="new 0 0 580 580"
   height="580"
   viewBox="0 0 580 580"
   width="580"
   version="1.1"
   id="svg8"
   sodipodi:docname="place_of_worship_christian.svg"
   inkscape:version="1.2.1 (9c6d41e410, 2022-07-14)"
   xmlns:inkscape="http://www.inkscape.org/namespaces/inkscape"
   xmlns:sodipodi="http://sodipodi.sourceforge.net/DTD/sodipodi-0.dtd"
   xmlns="http://www.w3.org/2000/svg"
   xmlns:svg="http://www.w3.org/2000/svg">
  <defs
     id="defs12" />
  <sodipodi:namedview
     id="namedview10"
     pagecolor="#ffffff"
     bordercolor="#000000"
     borderopacity="0.25"
     inkscape:showpageshadow="2"
     inkscape:pageopacity="0.0"
     inkscape:pagecheckerboard="0"
     inkscape:deskcolor="#d1d1d1"
     showgrid="false"
     inkscape:zoom="0.5"
     inkscape:cx="271"
     inkscape:cy="290"
     inkscape:window-width="1920"
     inkscape:window-height="1057"
     inkscape:window-x="-8"
     inkscape:window-y="-8"
     inkscape:window-maximized="1"
     inkscape:current-layer="svg8" />
  <path
     d="m339.523 108.879l-7.194-.13-1.39-84.656v-1.37l-39.205.685-39.205-.685v1.37l-1.389 84.656-7.194.13h-69.462v1.259 37.317 38.576.741l77.099.518.946 110.314v42.447c2.014-.231 4.058-.389 6.124-.497 10.508 1.844 21.766 1.557 33.082.948 11.315.608 22.573.896 33.081-.948 2.065.108 4.109.266 6.123.497v-42.405l.946-110.356 77.1-.518v-.741-38.576-37.317-1.259z"
     fill="param(fill)"
     fill-opacity="param(fill-opacity)"
     stroke="param(outline)"
     stroke-opacity="param(outline-opacity)"
     stroke-width="param(outline-width)"
     id="path2"
     style="fill:#ffffff;fill-opacity:1;stroke:#040404;stroke-opacity:1;paint-order:fill markers stroke;stroke-width:12;stroke-dasharray:none" />
  <path
     d="m375.979 362.932h-168.92c-5.561 0-10.068 4.508-10.068 10.068v168.921c0 5.561 4.507 10.068 10.068 10.068h168.92c5.561 0 10.068-4.508 10.068-10.068v-168.921c.001-5.561-4.507-10.068-10.068-10.068z"
     fill="param(fill)"
     opacity=".5"
     id="path4"
     style="fill:#ffffff;fill-opacity:1;stroke:#000000;stroke-opacity:1;paint-order:fill markers stroke;stroke-width:12;stroke-dasharray:none" />
  <path
     d="m375.979 362.932h-168.92c-5.561 0-10.068 4.508-10.068 10.068v168.921c0 5.561 4.507 10.068 10.068 10.068h168.92c5.561 0 10.068-4.508 10.068-10.068v-168.921c.001-5.561-4.507-10.068-10.068-10.068z"
     fill="none"
     stroke="param(outline)"
     stroke-width="param(outline-width)"
     id="path6" />
</svg>
